<?xml version="1.0" standalone="no"?>
<!DOCTYPE svg PUBLIC "-//W3C//DTD SVG 20010904//EN"
 "http://www.w3.org/TR/2001/REC-SVG-20010904/DTD/svg10.dtd">
<svg version="1.0" xmlns="http://www.w3.org/2000/svg"
 width="747.000000pt" height="175.000000pt" viewBox="0 0 747.000000 175.000000"
 preserveAspectRatio="xMidYMid meet">

<g transform="translate(0.000000,175.000000) scale(0.100000,-0.100000)"
fill="#000000" stroke="none">
<path d="M5395 1740 c-376 -59 -629 -332 -602 -650 9 -110 40 -175 121 -256
82 -82 159 -123 326 -174 258 -78 245 -73 248 -102 3 -22 -2 -30 -23 -38 -61
-23 -229 4 -424 70 -64 21 -119 36 -122 32 -10 -11 -179 -442 -179 -456 0 -16
83 -54 193 -90 221 -72 494 -91 672 -47 232 57 401 191 476 378 21 51 24 74
24 198 0 139 0 141 -34 209 -68 138 -191 222 -398 272 -226 55 -235 58 -256
86 -17 23 -19 31 -9 53 7 14 24 30 39 36 60 23 267 -12 390 -66 31 -14 57 -24
58 -23 4 8 155 409 157 420 5 20 -161 96 -269 124 -110 28 -291 39 -388 24z"/>
<path d="M0 874 l0 -856 498 4 c472 4 501 6 577 26 231 63 354 182 387 371 33
191 -58 364 -237 452 -36 17 -65 33 -65 35 0 2 15 10 34 18 50 21 124 93 151
146 33 66 48 153 41 237 -20 243 -182 376 -501 413 -49 5 -269 10 -487 10
l-398 0 0 -856z m753 432 c63 -26 88 -88 64 -156 -18 -51 -63 -73 -164 -78
l-83 -5 0 127 0 126 75 0 c42 0 90 -6 108 -14z m64 -616 c54 -23 77 -60 77
-120 0 -100 -50 -132 -211 -138 l-113 -4 0 139 c0 77 3 143 7 147 14 13 196
-5 240 -24z"/>
<path d="M1590 875 l0 -855 570 0 570 0 0 275 0 275 -260 0 -260 0 0 580 0
580 -310 0 -310 0 0 -855z"/>
<path d="M3465 1718 c-24 -65 -415 -1178 -505 -1438 -43 -124 -82 -233 -85
-242 -7 -17 11 -18 288 -18 l296 0 19 52 c10 29 79 220 153 425 73 204 136
370 139 367 2 -3 72 -193 155 -422 l150 -417 293 -3 c180 -1 292 1 292 7 0 9
-35 109 -415 1194 l-179 507 -298 0 c-230 0 -300 -3 -303 -12z"/>
<path d="M6170 1455 l0 -275 170 0 170 0 0 -580 0 -580 305 0 305 0 2 577 3
578 173 3 172 2 0 275 0 275 -650 0 -650 0 0 -275z"/>
</g>
</svg>
