<?xml version="1.0" standalone="no"?>
<!DOCTYPE svg PUBLIC "-//W3C//DTD SVG 20010904//EN"
 "http://www.w3.org/TR/2001/REC-SVG-20010904/DTD/svg10.dtd">
<svg version="1.0" xmlns="http://www.w3.org/2000/svg"
 width="900.000000pt" height="900.000000pt" viewBox="0 0 900.000000 900.000000"
 preserveAspectRatio="xMidYMid meet">

<g transform="translate(0.000000,900.000000) scale(0.100000,-0.100000)"
fill="#000000" stroke="none">
<path d="M3990 7316 c-294 -91 -583 -290 -764 -526 -72 -94 -176 -262 -176
-284 0 -5 133 -71 367 -181 120 -57 125 -59 178 -88 50 -26 143 -67 154 -67 6
0 11 7 11 16 0 39 120 180 225 263 58 46 180 111 209 111 8 0 18 5 21 10 3 6
15 10 26 10 11 0 22 6 25 14 4 11 -102 507 -149 691 -15 61 -24 63 -127 31z"/>
<path d="M4530 7080 c-116 -15 -160 -23 -165 -29 -2 -4 1 -25 6 -47 13 -55 47
-208 73 -332 8 -40 17 -76 20 -81 3 -4 10 -32 15 -62 13 -71 28 -142 41 -188
l9 -36 153 0 c114 0 170 -4 219 -18 69 -18 179 -68 250 -112 22 -15 44 -25 49
-23 8 3 131 154 216 264 86 112 247 309 255 312 16 6 -9 38 -53 67 -24 16 -52
37 -63 46 -21 18 -191 105 -260 134 -67 27 -146 52 -225 70 -41 9 -91 21 -110
26 -48 13 -351 19 -430 9z"/>
<path d="M2624 6423 c-31 -70 -45 -113 -72 -218 -38 -149 -47 -226 -46 -410 1
-147 5 -199 23 -285 39 -181 106 -370 132 -370 6 0 62 24 123 54 129 63 391
189 489 236 37 18 69 36 72 40 3 5 -4 29 -15 54 -37 87 -53 199 -47 325 6 110
25 210 46 235 5 6 11 24 13 40 3 34 14 27 -177 117 -221 105 -459 219 -477
229 -31 17 -38 11 -64 -47z"/>
<path d="M4195 6044 c-312 -44 -537 -290 -561 -614 -19 -269 180 -540 466
-636 85 -28 273 -26 360 5 184 64 336 203 404 371 106 261 16 586 -208 749
-68 49 -168 101 -196 101 -12 0 -29 4 -38 9 -20 11 -182 21 -227 15z m-44
-115 c105 -78 105 -77 99 -204 l-5 -109 -55 -39 c-119 -84 -130 -90 -142 -80
-7 5 -47 20 -88 33 -75 23 -110 43 -110 64 0 6 -14 44 -30 85 -17 40 -30 79
-30 85 0 22 68 93 127 132 75 49 135 82 152 83 7 1 44 -22 82 -50z m381 25
c94 -48 218 -153 218 -185 0 -31 -65 -201 -80 -209 -26 -14 -172 -60 -190 -60
-16 0 -168 104 -182 125 -4 5 -8 58 -8 116 l0 105 67 55 c68 55 102 78 116 79
4 0 31 -12 59 -26z m-592 -452 c124 -40 125 -42 150 -124 12 -40 27 -87 33
-104 10 -30 7 -37 -54 -118 -36 -49 -73 -88 -84 -91 -11 -2 -62 -2 -114 -2
l-94 2 -27 45 c-37 63 -58 124 -70 204 -13 81 -9 96 29 119 16 9 53 35 82 57
29 22 56 40 59 40 3 0 44 -13 90 -28z m849 -37 l84 -58 -6 -73 c-4 -40 -11
-83 -16 -96 -35 -91 -47 -117 -68 -145 l-24 -33 -104 0 -105 0 -45 58 c-25 31
-56 73 -70 92 l-24 35 33 98 c18 54 39 105 48 113 16 17 186 75 203 70 6 -2
48 -30 94 -61z m-371 -284 c54 -65 92 -125 92 -141 0 -8 -12 -55 -27 -104 -37
-119 -40 -121 -208 -121 -140 0 -187 12 -193 50 -2 11 -14 55 -28 98 -20 63
-22 82 -13 100 16 29 98 139 115 153 7 6 59 11 119 11 l105 1 38 -47z"/>
<path d="M4315 4411 c-3 -5 -1 -12 5 -16 5 -3 10 1 10 9 0 18 -6 21 -15 7z"/>
<path d="M3128 3310 c-43 -13 -102 -49 -122 -77 -27 -36 -33 -106 -12 -138 15
-22 23 -25 75 -25 52 0 65 4 103 33 96 73 101 190 8 210 -14 2 -37 1 -52 -3z"/>
<path d="M3456 3313 c-71 -18 -146 -101 -146 -162 0 -54 23 -81 69 -81 20 0
45 -6 55 -13 17 -12 17 -18 6 -53 -16 -49 -34 -70 -79 -92 -65 -30 -125 -75
-194 -146 -72 -74 -76 -79 -136 -201 -78 -160 -112 -403 -80 -581 27 -152 90
-294 146 -326 29 -18 31 -18 54 0 23 19 23 19 8 108 -24 152 -12 366 23 411
10 13 66 1 102 -22 25 -15 135 -35 198 -35 115 0 284 62 358 133 66 63 123
132 146 177 88 177 57 338 -86 446 -81 61 -156 86 -275 91 -118 6 -135 16
-135 78 0 35 6 47 40 80 70 69 66 164 -9 185 -20 5 -38 9 -41 9 -3 -1 -14 -4
-24 -6z m185 -668 c90 -59 72 -202 -38 -307 -15 -15 -55 -41 -88 -57 -168 -85
-319 18 -263 180 6 19 29 57 50 84 96 122 241 165 339 100z"/>
<path d="M2740 3290 c-45 -35 -62 -54 -81 -93 -17 -33 -18 -44 -9 -73 14 -41
35 -54 90 -54 80 0 163 72 176 151 4 25 0 41 -16 62 -19 24 -28 27 -78 27 -41
-1 -64 -6 -82 -20z"/>
<path d="M6365 3070 c-34 -13 -65 -55 -72 -94 -10 -62 50 -126 119 -126 29 0
73 29 92 60 52 90 -43 200 -139 160z"/>
<path d="M4355 2998 c-3 -7 -4 -198 -3 -423 l3 -410 234 -3 c181 -2 236 1 243
10 13 21 10 154 -4 166 -7 5 -65 11 -128 11 -63 1 -118 5 -122 9 -4 4 -9 152
-10 327 l-3 320 -103 3 c-76 2 -104 -1 -107 -10z"/>
<path d="M5747 3003 c-4 -4 -7 -190 -7 -414 1 -324 4 -410 14 -418 9 -8 88
-11 242 -9 l229 3 3 84 c2 61 -1 87 -10 92 -7 5 -65 9 -129 9 -101 0 -118 2
-123 17 -4 10 -6 157 -5 328 l1 310 -104 3 c-57 1 -107 -1 -111 -5z"/>
<path d="M1415 2981 c-88 -8 -172 -25 -223 -47 -18 -8 -39 -14 -46 -14 -23 0
-119 -60 -138 -85 -17 -22 -17 -24 1 -46 l18 -23 114 28 c68 17 155 30 215 33
94 5 103 4 123 -16 11 -11 21 -29 21 -39 0 -30 -70 -93 -257 -233 -216 -161
-326 -268 -343 -330 -19 -68 -4 -107 52 -142 168 -104 726 -60 876 69 31 26
35 34 24 47 -14 17 -53 15 -160 -9 -79 -18 -92 -17 -156 1 -39 11 -56 22 -65
41 -30 67 -7 101 224 329 183 180 215 225 215 298 0 45 -14 65 -67 94 -62 35
-275 56 -428 44z"/>
<path d="M2365 2973 c-39 -8 -180 -56 -185 -62 -3 -3 -25 -19 -48 -36 -61 -41
-162 -153 -162 -179 0 -27 18 -46 43 -46 10 0 60 25 109 56 113 70 153 84 237
84 93 0 133 -14 176 -61 33 -37 36 -44 33 -92 l-3 -52 -170 -1 c-277 -3 -396
-51 -464 -188 -20 -41 -23 -59 -19 -120 5 -78 20 -108 78 -163 117 -109 388
-124 578 -33 46 22 91 40 99 40 8 0 35 -18 60 -40 50 -43 67 -48 93 -25 15 13
16 30 12 108 -2 50 0 121 6 157 6 36 19 110 28 165 13 82 15 113 6 171 -24
152 -116 257 -270 304 -60 19 -181 25 -237 13z m172 -517 c53 -53 27 -135 -62
-194 -43 -29 -56 -33 -93 -29 -110 12 -122 127 -21 210 63 51 132 56 176 13z"/>
<path d="M6810 2817 c-124 -48 -200 -169 -200 -317 0 -91 16 -144 64 -209 86
-117 279 -152 392 -71 23 16 44 26 48 23 11 -12 6 -72 -10 -113 -33 -82 -146
-109 -214 -50 -34 29 -38 29 -148 30 -126 0 -132 -3 -108 -61 61 -146 329
-223 515 -149 67 26 98 50 133 102 54 82 59 130 56 488 l-3 325 -105 0 c-101
0 -105 -1 -108 -22 -4 -28 -28 -30 -41 -4 -14 25 -98 51 -163 50 -29 0 -78
-10 -108 -22z m251 -190 c44 -29 64 -71 62 -128 -2 -84 -56 -133 -148 -133
-56 0 -91 20 -119 67 -22 40 -21 114 4 155 38 62 138 82 201 39z"/>
<path d="M7600 2823 c-67 -23 -119 -62 -156 -116 -45 -65 -59 -116 -58 -212 1
-134 63 -238 176 -294 51 -26 73 -31 133 -31 73 0 137 21 165 54 15 19 42 21
39 4 -4 -36 0 -38 105 -38 85 0 105 3 110 16 3 9 6 145 6 304 0 234 -3 290
-14 299 -9 8 -47 11 -107 9 -85 -3 -94 -5 -105 -25 -10 -21 -12 -21 -30 -8
-69 54 -175 69 -264 38z m238 -200 c36 -22 62 -73 62 -121 0 -92 -62 -148
-156 -140 -47 4 -61 10 -91 40 -29 29 -37 45 -40 85 -6 65 20 111 78 141 48
25 103 23 147 -5z"/>
<path d="M5100 2811 c-47 -12 -106 -49 -147 -93 -113 -124 -115 -343 -4 -470
100 -113 293 -141 387 -57 27 25 42 24 46 -3 3 -22 8 -23 93 -26 50 -2 100 0
112 3 l23 5 -3 313 -2 312 -108 3 c-102 3 -109 1 -114 -18 -7 -25 -7 -25 -77
10 -48 24 -70 30 -120 29 -34 -1 -72 -4 -86 -8z m225 -210 c57 -32 80 -116 51
-186 -21 -48 -68 -75 -135 -75 -68 0 -112 30 -136 95 -17 42 -17 48 -1 88 37
98 129 130 221 78z"/>
<path d="M6305 2727 c-3 -7 -4 -136 -3 -287 l3 -275 80 -3 c133 -5 120 -35
119 275 -1 147 -2 276 -3 286 -1 15 -13 17 -96 17 -68 0 -97 -4 -100 -13z"/>
</g>
</svg>
