<?xml version="1.0" encoding="UTF-8" standalone="no"?>
<svg xmlns="http://www.w3.org/2000/svg" version="1.1" width="2000" height="1746.6978">
  <title>Globo</title>
  <g transform="translate(544.83066,269.8373)">
    <path d="m 453.74334,-269.8373 c -300.5207,0 -544.427795,245.464399 -544.427795,545.9586 0,301.04724 243.907095,546.54923 544.427795,546.54923 301.1265,0 544.9995,-245.50199 544.9995,-546.54923 0,-300.494201 -243.873,-545.9586 -544.9995,-545.9586 z M 407.62444,3.6881986 c 15.4917,-0.049 30.8734,-0.026 46.1189,0.057 122.5398,-0.623 253.8343,2.3322 371.6833,15.1867004 34.4607,3.5056 52.5088,11.6925 56.6311,49.0916 6.3785,67.803201 6.9993,137.365801 6.9993,208.097601 0,71.31638 -0.6218,140.87902 -6.9993,208.68202 -4.1223,37.41465 -22.1704,45.60529 -56.6311,49.11058 -117.849,12.8612 -249.1435,15.19306 -371.6833,15.19306 -121.9573,0 -253.2564,-2.33046 -371.130495,-15.19306 -34.4214,-3.50529 -52.5156,-11.69593 -56.5992,-49.11058 -6.4175,-67.803 -6.9996,-137.36564 -6.9996,-208.68202 0,-70.7318 0.5831,-140.2944 6.9996,-208.097601 4.0836,-37.3991 22.1778,-45.586 56.5992,-49.0916 C 185.75234,7.6853986 299.17924,4.0127986 407.62444,3.6880986 Z m 46.1189,51.4734004 c -122.5414,0 -221.1629,99.375301 -221.1629,220.959701 0,122.16857 98.6215,220.9596 221.1629,220.9596 123.1225,0 221.7346,-98.79103 221.7346,-220.9596 0,-121.5844 -98.6121,-220.959701 -221.7346,-220.959701 z m -131.783,910.197751 c -140.8347,0 -255.766595,114.91915 -255.766595,255.74735 0,140.8347 114.931895,255.7538 255.766595,255.7538 140.8282,0 255.7348,-114.9191 255.7348,-255.7538 0,-140.8282 -114.9066,-255.74735 -255.7348,-255.74735 z m 877.48066,0 c -140.8281,0 -255.77926,114.91915 -255.77926,255.74735 0,140.8347 114.95116,255.7538 255.77926,255.7538 140.8158,0 255.7283,-114.9191 255.7283,-255.7538 0,-140.8282 -114.9125,-255.74735 -255.7283,-255.74735 z m -1500.92876,0.12068 c -136.1592,2.89166 -242.9985,119.43307 -243.3429,245.09577 0,153.7908 123.2077,252.8511 247.2555,252.8511 l 363.305405,0 0,-109.0889 -148.1133,0 226.574495,-375.56406 -145.6865954,0 0,0.007 -123.1512046,204.62966 -176.8414,0 0,106.0401 120.547,0 c -22.983,34.1305 -54.1576,58.5059 -110.6767,58.168 -65.3192,-0.3756 -127.572,-43.3712 -127.572,-133.7204 0,-76.6982 66.1702,-128.1622 124.9489,-128.1309 44.9085,0.037 99.7099,13.4231 136.8197,74.9807 l 66.152005,-109.5019 C -146.31686,992.92456 -207.33326,965.48053 -301.48776,965.48053 Z m 902.3405,13.30026 0,484.64661 176.3526,0 c 98.2231,0 153.2704,-64.6334 153.2704,-148.3355 0,-44.2826 -21.2523,-87.3795 -62.4616,-108.8855 32.3655,-23.8282 44.6415,-53.5577 44.4041,-97.8529 -0.3317,-61.0381 -41.6476,-129.57271 -150.298,-129.57271 l -161.2675,0 z m 123.8312,105.98291 34.8639,0.025 c 18.1827,0.019 39.7186,13.8759 39.7609,39.4879 0.033,24.7295 -16.8478,42.3398 -40.2627,42.3398 l -34.3621,0 0,-81.8531 z m -402.7236,6.6565 c 71.4157,0 129.6617,58.2715 129.6617,129.687 0,71.3969 -58.246,129.6998 -129.6617,129.6998 -71.4219,0 -129.6809,-58.2966 -129.6809,-129.6998 0,-71.4155 58.259,-129.687 129.6809,-129.687 z m 877.48066,0 c 71.3969,0 129.6744,58.2715 129.6744,129.687 0,71.3969 -58.2775,129.6998 -129.6744,129.6998 -71.4092,0 -129.7062,-58.2966 -129.7062,-129.6998 0,-71.4155 58.297,-129.687 129.7062,-129.687 z m -474.75706,168.1587 39.0116,0 c 29.3296,0 49.7647,22.2348 49.7647,48.7105 0,24.3977 -20.3379,48.0308 -46.9576,48.0308 l -41.8187,0 0,-96.7413 z" style="fill:#00aeef;fill-opacity:1;fill-rule:evenodd;stroke:none" />
  </g>
</svg>
