<?xml version="1.0" encoding="utf-8"?>
<!-- Generator: Adobe Illustrator 16.0.0, SVG Export Plug-In . SVG Version: 6.00 Build 0)  -->
<!DOCTYPE svg PUBLIC "-//W3C//DTD SVG 1.1//EN" "http://www.w3.org/Graphics/SVG/1.1/DTD/svg11.dtd">
<svg version="1.1" id="Layer_1" xmlns="http://www.w3.org/2000/svg" xmlns:xlink="http://www.w3.org/1999/xlink" x="0px" y="0px"
	 width="1000px" height="321.858px" viewBox="0 0 1000 321.858" enable-background="new 0 0 1000 321.858" xml:space="preserve">
<g>
	<polygon fill="#006BB5" points="247.082,50.452 298.728,50.452 335.642,188.299 336.176,188.299 336.176,50.452 377.916,50.452 
		377.916,262.562 327.076,262.562 287.743,116.403 287.209,116.403 287.209,262.562 247.082,262.562 	"/>
	<path fill="#006BB5" d="M396.378,50.448h69.837c32.641,0,54.31,16.933,54.31,52.294c0,24.656-11.765,43.954-29.957,47.823v0.593
		c14.177,2.371,35.324,9.209,35.324,52.587c0,24.948-9.921,58.815-63.155,58.815h-66.358V50.448z M441.332,135.122h12.305
		c15.519,0,21.938-9.802,21.938-24.957c0-10.984-5.352-22.87-21.681-22.87h-12.562V135.122z M441.332,225.722h13.633
		c18.198,0,24.356-12.775,24.356-27.621c0-20.791-9.641-29.708-23.538-29.708h-14.451V225.722z"/>
	<path fill="#006BB5" d="M575.917,50.452h56.176l47.63,212.109h-46.546l-6.966-40.405h-45.765l-6.664,40.405h-46.555L575.917,50.452
		z M603.207,89.074h-0.547l-15.778,94.465h32.642L603.207,89.074z"/>
	<polygon fill="#006BB5" points="760.793,90.852 720.672,90.852 720.672,50.46 845.869,50.46 845.869,90.852 805.741,90.852 
		805.741,262.562 760.793,262.562 	"/>
	<polygon fill="#006BB5" points="857.388,50.452 905.548,50.452 928.291,214.426 928.819,214.426 951.824,50.452 1000,50.452 
		956.646,262.562 899.396,262.562 	"/>
	<rect x="177.21" fill="#006BB5" width="8.001" height="321.858"/>
	<path fill="#FFFFFF" d="M95.418,14.329H29.167C13.091,14.329,0,27.412,0,43.496v224.409c0,16.079,13.091,29.18,29.167,29.18
		c0,0,66.072-0.019,66.228-0.019c16.09,0,29.174-13.09,29.174-29.161l0.017-224.409C124.585,27.412,111.5,14.329,95.418,14.329"/>
	<path fill="#FFFFFF" d="M95.395,290.292c12.359,0,22.407-9.951,22.407-22.395l0.016-224.401c0-12.372-10.032-22.401-22.399-22.401
		H29.175c-12.384,0-22.396,10.029-22.396,22.401v224.409c0,12.364,10.012,22.387,22.396,22.387H95.395z"/>
	<path fill="#006BB5" d="M91.216,257.763c-2.324-9.796-10.143-15.74-6.119-18.965c-0.987-3.267-2.987-7.329-2.909-7.29
		c-12.135-6.986-22.519-18.3-24.27-19.945c-2.095-2.323-5.711-4.655-6.41-6.521c-2.914-2.68-17.273-22.973-20.526-30.436
		l-5.839-0.831c-2.612-10.766-11.431-19.823-11.648-30.672c-0.106-4.095,1.854-12.831,2.558-14.578
		c0.695-1.751,4.079-4.657,4.079-4.657v-2.929c-12.66,0.38-9-0.917-11.194-5.83c-1.521-3.415-0.446-4.159,0.115-6.537
		c1.659-6.926,7.34-17.725,9.673-22.622c0.711-2.451,3.157-8.408,3.157-8.408c9.454-19.234,12.961-17.834,24.14-18.885l0.589-0.819
		c11.229-0.47,9.399-1.352,10.96-12.126c-1.632,0.695-2.094-3.384-2.094-3.384c-0.906-6.186,1.69-5.011,2.913-5.134
		c0.284-10.103,1.279-13.289,8.636-16.1H29.175c-12.384,0-22.399,10.029-22.399,22.401v224.409
		c0,12.364,10.016,22.387,22.399,22.387h66.243c-7.577-4.063-3.096-11.897-2.851-26.703
		C88.998,260.378,91.395,259.044,91.216,257.763"/>
	<path fill="#EC174C" d="M79.085,67.006c1.992,1.213,3.052,2.146,5.091,3.466c5.367,3.416,12.029,9.455,11.179,30.29
		c1.521,4.55,2.194,13.487,3.62,16.329c2.803,5.592,4.664,9.214,5.479,14.466c0,0,0.825,8.217,1.868,8.807
		c5.605,1.273,3.977,1.806,4.788,2.803c0.865,1.099,4.109,1.074,4.103,4.055c1.126,1.506,1.952,3.044,2.601,4.676V43.5
		c0-12.38-10.024-22.401-22.392-22.401H74.033c3.424,1.23,5.345,2.68,6.519,4.961c2.735,0.229,6.004,6.427,0.913,15.549
		c2.226,1.53,0.486,3.807-1.099,6.447c-0.518,0.799-1.048,2.32-2.51,2.217c-2.008,4.103-4.341,8.063-6.08,8.298
		c-0.529,0.639-0.909,2.418-0.146,3.229c2.621,1.167,5.788,2.762,7.349,4.273L79.085,67.006z"/>
	<path fill="#EC174C" d="M98.766,290.033c9.803-5.938,3.716-17.227,1.846-23.891c-0.106-0.363,0.186-0.846,0.355-1.163
		c0.486-0.908-0.565-3.027-0.565-3.027c-1.166-1.051-1.489-6.57-2.114-9.091c-1.06-4.198,1.861-11.423,1.861-13.875
		c0-2.449-1.861-5.85-5.252-10.15c-0.818-0.933-3.293-21.976-5.479-27.288c-3.036-7.36-3.969-6.197-7.586-14.941
		c-2.803-6.182-0.585-15.282-6.89-36.392c0.04,0.106,1.415-1.289,1.415-1.289s-5.02-18.301-6.645-23.329
		c-1.645-5.003-4.573-5.359-4.573-5.359s0.04-2.04,0.187-2.566c0.232-0.817,6.07-16.083,6.589-16.561
		c0.04-0.349,8.467-6.096,8.637-5.246c0.695,3.731,3.969,22.748,5.359,25.775c1.399,3.043,6.298,12.368,8.574,18.139
		c-8.752,2.123-15.262,10.005-15.262,19.412c0,11.044,8.944,20,19.988,20c8.427,0,15.673-5.226,18.609-12.608l-0.016,101.308
		c0,11.272-8.104,20.49-18.839,22.144H98.766z"/>
	<polygon fill="#FFFFFF" points="18.707,241.247 26.277,241.247 31.609,259.676 31.854,261.004 31.926,261.004 31.926,241.247 
		38.621,241.247 38.621,274.782 31.092,274.782 25.669,255.248 25.482,254.038 25.412,254.038 25.412,274.782 18.707,274.782 	"/>
	<path fill="#FFFFFF" d="M41.27,241.247h10.945c5.624,0,8.352,2.127,8.352,7.891c0,3.525-0.494,6.632-4.241,7.89v0.078
		c3.778,0.665,5.075,3.487,5.075,7.717c0,5.644-2.047,9.952-8.929,9.952H41.27V241.247z M49.234,269.074h2.301
		c2.557,0,2.857-1.265,2.857-4.584c0-2.292-0.301-4.537-2.696-4.537h-2.462V269.074z M49.234,254.513h2.123
		c2.435,0,2.695-1.818,2.695-3.906c0-2.354-0.514-3.667-2.407-3.667h-2.411V254.513z"/>
	<path fill="#FFFFFF" d="M67.828,241.239H78.07l6.287,33.543h-8.103l-0.712-7.368h-5.422l-0.795,7.368h-7.731L67.828,241.239z
		 M72.848,247.081l-1.925,15.067h3.858l-1.764-15.067l-0.031-0.773h-0.092L72.848,247.081z"/>
</g>
</svg>
