<svg width="1110" height="429" xmlns="http://www.w3.org/2000/svg" xmlns:xlink="http://www.w3.org/1999/xlink" xml:space="preserve" overflow="hidden"><defs><clipPath id="clip0"><rect x="52" y="960" width="1110" height="429"/></clipPath></defs><g clip-path="url(#clip0)" transform="translate(-52 -960)"><path d="M135.115 1140.51 205.465 1140.51 205.465 1320 135.115 1320ZM692.82 1029.14C700.144 1029.58 707.28 1031 713.695 1033.48 741.819 1045.57 756.406 1069.17 755.952 1101.28 756.119 1174.19 755.785 1247.09 755.952 1320L685.601 1320C685.357 1251.94 685.112 1183.87 684.868 1115.8 685.222 1108.35 682.066 1108.9 678.911 1112.46L527.924 1320 441.173 1320 636.214 1049.75C647.186 1035.42 670.849 1027.84 692.82 1029.14ZM51.9999 1029 436.109 1029 436.109 1029.14 442.631 1029.47C488.266 1034.09 523.877 1072.55 523.877 1119.3 523.877 1169.17 483.359 1209.6 433.378 1209.6L403.483 1209.6 403.483 1209.6 379.128 1209.6C367.4 1209.6 357.892 1219.08 357.892 1230.79L357.892 1312.65 357.892 1320 287.541 1320 287.541 1312.65 287.541 1312.65 287.541 1228.07C287.541 1174 323.063 1139.4 376.401 1139.4L403.483 1139.4 413.907 1139.4 433.378 1139.4C444.505 1139.4 453.526 1130.4 453.526 1119.3 453.526 1108.2 444.505 1099.2 433.378 1099.2L403.483 1099.2 403.483 1099.2 51.9999 1099.2Z" fill="#CD4C54" fill-rule="evenodd"/><rect x="884" y="960" width="78" height="429" fill="#CD4C54"/><path d="M1097.5 1029 1097.5 1029 1162 1029 1162 1320 1097.5 1320 1097.5 1092.73 1033 1126.35 1033 1062.63 1097.5 1029Z" fill="#CD4C54" fill-rule="evenodd"/></g></svg>