<svg width="1183" height="428" xmlns="http://www.w3.org/2000/svg" xmlns:xlink="http://www.w3.org/1999/xlink" xml:space="preserve" overflow="hidden"><defs><clipPath id="clip0"><rect x="1590" y="964" width="1183" height="428"/></clipPath></defs><g clip-path="url(#clip0)" transform="translate(-1590 -964)"><path d="M1673.11 1144.51 1743.47 1144.51 1743.47 1324 1673.11 1324ZM2230.82 1033.14C2238.14 1033.58 2245.28 1035 2251.69 1037.48 2279.82 1049.57 2294.41 1073.17 2293.95 1105.28 2294.12 1178.19 2293.78 1251.09 2293.95 1324L2223.6 1324C2223.36 1255.94 2223.11 1187.87 2222.87 1119.81 2223.22 1112.35 2220.07 1112.9 2216.91 1116.46L2065.92 1324 1979.17 1324 2174.21 1053.75C2185.19 1039.42 2208.85 1031.84 2230.82 1033.14ZM1590 1033 1974.11 1033 1974.11 1033.14 1980.63 1033.47C2026.27 1038.09 2061.88 1076.55 2061.88 1123.3 2061.88 1173.17 2021.36 1213.6 1971.38 1213.6L1941.48 1213.6 1941.48 1213.6 1917.13 1213.6C1905.4 1213.6 1895.89 1223.08 1895.89 1234.79L1895.89 1316.65 1895.89 1324 1825.54 1324 1825.54 1316.65 1825.54 1316.65 1825.54 1232.07C1825.54 1178 1861.06 1143.4 1914.4 1143.4L1941.48 1143.4 1951.91 1143.4 1971.38 1143.4C1982.51 1143.4 1991.53 1134.4 1991.53 1123.3 1991.53 1112.2 1982.51 1103.2 1971.38 1103.2L1941.48 1103.2 1941.48 1103.2 1590 1103.2Z" fill="#A864E2" fill-rule="evenodd"/><rect x="2422" y="964" width="78" height="428" fill="#A864E2"/><path d="M2730.97 1052.5C2771.53 1086.68 2776.09 1143.83 2744.64 1187.37 2720.89 1218.22 2692.23 1244.16 2662.35 1272.55L2773 1272.55 2773 1324 2578.58 1324 2578.58 1272.55C2621.32 1238.1 2655.46 1207.35 2684.68 1172.9 2704.48 1147.23 2710.93 1119.12 2694.72 1101.11 2680.33 1083.96 2644.99 1082.5 2629.74 1098.53L2603.71 1123.1 2567 1086.76C2577.03 1071.67 2589.63 1059.98 2604.81 1049.15 2649.15 1020.77 2712.35 1034.94 2730.97 1052.5Z" fill="#A864E2" fill-rule="evenodd"/></g></svg>